<svg width="333" height="323" viewBox="0 0 333 323" fill="none" xmlns="http://www.w3.org/2000/svg">
<path d="M331.958 161.5C331.958 250.404 257.773 322.5 166.229 322.5C74.6858 322.5 0.5 250.404 0.5 161.5C0.5 72.5957 74.6858 0.5 166.229 0.5C257.773 0.5 331.958 72.5957 331.958 161.5Z" fill="black" stroke="black"/>
<path d="M308.211 160.577C308.211 236.74 244.657 298.506 166.229 298.506C87.8009 298.506 24.247 236.74 24.247 160.577C24.247 84.4148 87.8009 22.6486 166.229 22.6486C244.657 22.6486 308.211 84.4148 308.211 160.577Z" fill="white" stroke="black"/>
<path d="M308.211 160.577C308.211 236.74 244.657 298.506 166.229 298.506C87.8009 298.506 24.247 236.74 24.247 160.577C24.247 84.4148 87.8009 22.6486 166.229 22.6486C244.657 22.6486 308.211 84.4148 308.211 160.577Z" fill="black" fill-opacity="0.8" stroke="black"/>
<path d="M284.464 161.5C284.464 224.92 231.542 276.357 166.229 276.357C100.916 276.357 47.994 224.92 47.994 161.5C47.994 98.0796 100.916 46.6428 166.229 46.6428C231.542 46.6428 284.464 98.0796 284.464 161.5Z" fill="white" stroke="black"/>
<path d="M284.464 161.5C284.464 224.92 231.542 276.357 166.229 276.357C100.916 276.357 47.994 224.92 47.994 161.5C47.994 98.0796 100.916 46.6428 166.229 46.6428C231.542 46.6428 284.464 98.0796 284.464 161.5Z" fill="black" fill-opacity="0.7" stroke="black"/>
<path d="M260.717 160.577C260.717 211.256 218.427 252.363 166.229 252.363C114.031 252.363 71.7411 211.256 71.7411 160.577C71.7411 109.899 114.031 68.7914 166.229 68.7914C218.427 68.7914 260.717 109.899 260.717 160.577Z" fill="white" stroke="white"/>
<path d="M260.717 160.577C260.717 211.256 218.427 252.363 166.229 252.363C114.031 252.363 71.7411 211.256 71.7411 160.577C71.7411 109.899 114.031 68.7914 166.229 68.7914C218.427 68.7914 260.717 109.899 260.717 160.577Z" fill="black" fill-opacity="0.5" stroke="#1E1E1E"/>
<path d="M236.97 160.577C236.97 198.513 205.312 229.291 166.229 229.291C127.146 229.291 95.4881 198.513 95.4881 160.577C95.4881 122.641 127.146 91.8628 166.229 91.8628C205.312 91.8628 236.97 122.641 236.97 160.577Z" fill="white" stroke="black"/>
<path d="M236.97 160.577C236.97 198.513 205.312 229.291 166.229 229.291C127.146 229.291 95.4881 198.513 95.4881 160.577C95.4881 122.641 127.146 91.8628 166.229 91.8628C205.312 91.8628 236.97 122.641 236.97 160.577Z" fill="black" fill-opacity="0.4" stroke="black"/>
<path d="M213.223 161.5C213.223 186.694 192.197 207.143 166.229 207.143C140.261 207.143 119.235 186.694 119.235 161.5C119.235 136.306 140.261 115.857 166.229 115.857C192.197 115.857 213.223 136.306 213.223 161.5Z" fill="white" stroke="black"/>
<path d="M213.223 161.5C213.223 186.694 192.197 207.143 166.229 207.143C140.261 207.143 119.235 186.694 119.235 161.5C119.235 136.306 140.261 115.857 166.229 115.857C192.197 115.857 213.223 136.306 213.223 161.5Z" fill="black" fill-opacity="0.2" stroke="black"/>
<path d="M189.476 161.5C189.476 173.952 179.082 184.071 166.229 184.071C153.376 184.071 142.982 173.952 142.982 161.5C142.982 149.048 153.376 138.929 166.229 138.929C179.082 138.929 189.476 149.048 189.476 161.5Z" fill="#FFF500" stroke="black"/>
<path d="M189.476 161.5C189.476 173.952 179.082 184.071 166.229 184.071C153.376 184.071 142.982 173.952 142.982 161.5C142.982 149.048 153.376 138.929 166.229 138.929C179.082 138.929 189.476 149.048 189.476 161.5Z" stroke="black"/>
<circle cx="166" cy="161" r="1.5" fill="black" stroke="black"/>
</svg>
